<mxfile host="drawio-plugin" modified="2022-07-26T12:29:14.158Z" agent="5.0 (Macintosh; Intel Mac OS X 10_15_7) AppleWebKit/537.36 (KHTML, like Gecko) Chrome/97.0.4692.45 Safari/537.36" etag="VlEJ_16AiA-WPQKJnz22" version="15.5.4" type="embed"><diagram id="23iRSUPoRavnBvh4doch" name="Page-1"><mxGraphModel dx="1153" dy="585" grid="1" gridSize="10" guides="1" tooltips="1" connect="1" arrows="1" fold="1" page="1" pageScale="1" pageWidth="827" pageHeight="1169" math="0" shadow="0"><root><mxCell id="0"/><mxCell id="1" parent="0"/><mxCell id="2" style="edgeStyle=none;rounded=0;orthogonalLoop=1;jettySize=auto;html=1;dashed=1;opacity=50;" edge="1" parent="1" source="3" target="12"><mxGeometry relative="1" as="geometry"/></mxCell><mxCell id="3" value="Over-consume&lt;br&gt;10%" style="ellipse;whiteSpace=wrap;html=1;fillColor=#f8cecc;strokeColor=#b85450;sketch=1;textOpacity=50;" vertex="1" parent="1"><mxGeometry x="140" y="190" width="80" height="50" as="geometry"/></mxCell><mxCell id="4" style="edgeStyle=none;rounded=0;orthogonalLoop=1;jettySize=auto;html=1;dashed=1;opacity=50;" edge="1" parent="1" source="5" target="12"><mxGeometry relative="1" as="geometry"/></mxCell><mxCell id="5" value="Over-consume&lt;br&gt;20%" style="ellipse;whiteSpace=wrap;html=1;fillColor=#f8cecc;strokeColor=#b85450;sketch=1;textOpacity=50;" vertex="1" parent="1"><mxGeometry x="240" y="190" width="80" height="50" as="geometry"/></mxCell><mxCell id="6" style="edgeStyle=none;rounded=0;orthogonalLoop=1;jettySize=auto;html=1;dashed=1;opacity=50;" edge="1" parent="1" source="7" target="12"><mxGeometry relative="1" as="geometry"/></mxCell><mxCell id="7" value="Over-consume&lt;br&gt;30%" style="ellipse;whiteSpace=wrap;html=1;fillColor=#f8cecc;strokeColor=#b85450;sketch=1;textOpacity=50;" vertex="1" parent="1"><mxGeometry x="334" y="190" width="80" height="50" as="geometry"/></mxCell><mxCell id="8" style="rounded=0;orthogonalLoop=1;jettySize=auto;html=1;" edge="1" parent="1" source="12" target="13"><mxGeometry relative="1" as="geometry"/></mxCell><mxCell id="9" style="edgeStyle=none;rounded=0;orthogonalLoop=1;jettySize=auto;html=1;" edge="1" parent="1" source="12" target="14"><mxGeometry relative="1" as="geometry"/></mxCell><mxCell id="10" style="edgeStyle=none;rounded=0;orthogonalLoop=1;jettySize=auto;html=1;" edge="1" parent="1" source="12" target="15"><mxGeometry relative="1" as="geometry"/></mxCell><mxCell id="11" style="edgeStyle=none;rounded=0;orthogonalLoop=1;jettySize=auto;html=1;" edge="1" parent="1" source="12" target="17"><mxGeometry relative="1" as="geometry"/></mxCell><mxCell id="12" value="Good &lt;br&gt;comfort" style="ellipse;whiteSpace=wrap;html=1;fillColor=#f5f5f5;strokeColor=#666666;fontColor=#333333;strokeWidth=3;" vertex="1" parent="1"><mxGeometry x="240" y="270" width="80" height="50" as="geometry"/></mxCell><mxCell id="13" value="Buy energy&lt;br&gt;10%" style="ellipse;whiteSpace=wrap;html=1;fillColor=#f8cecc;strokeColor=#b85450;" vertex="1" parent="1"><mxGeometry x="100" y="350" width="80" height="50" as="geometry"/></mxCell><mxCell id="14" value="Buy energy&lt;br&gt;30%" style="ellipse;whiteSpace=wrap;html=1;fillColor=#f8cecc;strokeColor=#b85450;" vertex="1" parent="1"><mxGeometry x="200" y="350" width="80" height="50" as="geometry"/></mxCell><mxCell id="15" value="Buy energy&lt;br&gt;50%" style="ellipse;whiteSpace=wrap;html=1;fillColor=#f8cecc;strokeColor=#b85450;" vertex="1" parent="1"><mxGeometry x="300" y="350" width="80" height="50" as="geometry"/></mxCell><mxCell id="16" style="edgeStyle=none;rounded=0;orthogonalLoop=1;jettySize=auto;html=1;" edge="1" parent="1" source="17" target="28"><mxGeometry relative="1" as="geometry"/></mxCell><mxCell id="17" value="Buy energy&lt;br&gt;75%" style="ellipse;whiteSpace=wrap;html=1;fillColor=#f8cecc;strokeColor=#b85450;" vertex="1" parent="1"><mxGeometry x="400" y="350" width="80" height="50" as="geometry"/></mxCell><mxCell id="18" style="edgeStyle=none;rounded=0;orthogonalLoop=1;jettySize=auto;html=1;" edge="1" parent="1" source="19" target="13"><mxGeometry relative="1" as="geometry"/></mxCell><mxCell id="19" value="Average comfort" style="ellipse;whiteSpace=wrap;html=1;fillColor=#f5f5f5;strokeColor=#666666;fontColor=#333333;strokeWidth=3;" vertex="1" parent="1"><mxGeometry x="100" y="270" width="80" height="50" as="geometry"/></mxCell><mxCell id="20" style="edgeStyle=none;rounded=0;orthogonalLoop=1;jettySize=auto;html=1;opacity=50;dashed=1;" edge="1" parent="1" source="22" target="27"><mxGeometry relative="1" as="geometry"/></mxCell><mxCell id="21" style="edgeStyle=none;rounded=0;orthogonalLoop=1;jettySize=auto;html=1;dashed=1;opacity=50;" edge="1" parent="1" source="22" target="29"><mxGeometry relative="1" as="geometry"/></mxCell><mxCell id="22" value="Bad &lt;br&gt;comfort" style="ellipse;whiteSpace=wrap;html=1;fillColor=#f5f5f5;strokeColor=#666666;fontColor=#333333;textOpacity=50;sketch=1;" vertex="1" parent="1"><mxGeometry x="140" y="430" width="80" height="50" as="geometry"/></mxCell><mxCell id="23" style="edgeStyle=none;rounded=0;orthogonalLoop=1;jettySize=auto;html=1;" edge="1" parent="1" source="27" target="13"><mxGeometry relative="1" as="geometry"/></mxCell><mxCell id="24" style="edgeStyle=none;rounded=0;orthogonalLoop=1;jettySize=auto;html=1;" edge="1" parent="1" source="27" target="14"><mxGeometry relative="1" as="geometry"/></mxCell><mxCell id="25" style="edgeStyle=none;rounded=0;orthogonalLoop=1;jettySize=auto;html=1;" edge="1" parent="1" source="27" target="15"><mxGeometry relative="1" as="geometry"/></mxCell><mxCell id="26" style="edgeStyle=none;rounded=0;orthogonalLoop=1;jettySize=auto;html=1;" edge="1" parent="1" source="27" target="17"><mxGeometry relative="1" as="geometry"/></mxCell><mxCell id="27" value="Positive &lt;br&gt;payoff" style="ellipse;whiteSpace=wrap;html=1;fillColor=#dae8fc;strokeColor=#6c8ebf;strokeWidth=3;" vertex="1" parent="1"><mxGeometry x="240" y="430" width="80" height="50" as="geometry"/></mxCell><mxCell id="28" value="Bias" style="ellipse;whiteSpace=wrap;html=1;fillColor=#dae8fc;strokeColor=#6c8ebf;strokeWidth=3;" vertex="1" parent="1"><mxGeometry x="400" y="430" width="80" height="50" as="geometry"/></mxCell><mxCell id="29" value="Not buy energy" style="ellipse;whiteSpace=wrap;html=1;fillColor=#dae8fc;strokeColor=#6c8ebf;sketch=1;textOpacity=50;" vertex="1" parent="1"><mxGeometry x="40" y="430" width="80" height="50" as="geometry"/></mxCell><mxCell id="44" value="" style="group" vertex="1" connectable="0" parent="1"><mxGeometry x="210" y="10" width="180" height="170" as="geometry"/></mxCell><mxCell id="31" value="Legend" style="rounded=0;whiteSpace=wrap;html=1;fontSize=14;horizontal=1;verticalAlign=top;fillColor=default;" vertex="1" parent="44"><mxGeometry width="180" height="170" as="geometry"/></mxCell><mxCell id="32" value="Cons" style="ellipse;whiteSpace=wrap;html=1;fillColor=#f8cecc;strokeColor=#b85450;" vertex="1" parent="44"><mxGeometry x="10" y="30" width="40" height="20" as="geometry"/></mxCell><mxCell id="33" value="Pros" style="ellipse;whiteSpace=wrap;html=1;fillColor=#dae8fc;strokeColor=#6c8ebf;" vertex="1" parent="44"><mxGeometry x="10" y="60" width="40" height="20" as="geometry"/></mxCell><mxCell id="34" value="Neutral" style="ellipse;whiteSpace=wrap;html=1;fillColor=#f5f5f5;strokeColor=#666666;fontColor=#333333;" vertex="1" parent="44"><mxGeometry x="10" y="95" width="40" height="20" as="geometry"/></mxCell><mxCell id="35" value="Cons" style="ellipse;whiteSpace=wrap;html=1;fillColor=#f8cecc;strokeColor=#b85450;sketch=1;textOpacity=50;" vertex="1" parent="44"><mxGeometry x="60" y="30" width="40" height="20" as="geometry"/></mxCell><mxCell id="36" value="Pros" style="ellipse;whiteSpace=wrap;html=1;fillColor=#dae8fc;strokeColor=#6c8ebf;sketch=1;textOpacity=50;" vertex="1" parent="44"><mxGeometry x="60" y="60" width="40" height="20" as="geometry"/></mxCell><mxCell id="37" value="Neutral" style="ellipse;whiteSpace=wrap;html=1;fillColor=#f5f5f5;strokeColor=#666666;fontColor=#333333;sketch=1;textOpacity=50;" vertex="1" parent="44"><mxGeometry x="60" y="95" width="40" height="20" as="geometry"/></mxCell><mxCell id="38" value="Cons" style="ellipse;whiteSpace=wrap;html=1;fillColor=#f8cecc;strokeColor=#b85450;strokeWidth=3;" vertex="1" parent="44"><mxGeometry x="120" y="30" width="40" height="20" as="geometry"/></mxCell><mxCell id="39" value="Pros" style="ellipse;whiteSpace=wrap;html=1;fillColor=#dae8fc;strokeColor=#6c8ebf;strokeWidth=3;" vertex="1" parent="44"><mxGeometry x="120" y="60" width="40" height="20" as="geometry"/></mxCell><mxCell id="40" value="Neutral" style="ellipse;whiteSpace=wrap;html=1;fillColor=#f5f5f5;strokeColor=#666666;fontColor=#333333;strokeWidth=3;" vertex="1" parent="44"><mxGeometry x="120" y="95" width="40" height="20" as="geometry"/></mxCell><mxCell id="41" value="Enabled" style="text;html=1;strokeColor=none;fillColor=none;align=center;verticalAlign=middle;whiteSpace=wrap;rounded=0;sketch=1;opacity=50;" vertex="1" parent="44"><mxGeometry y="120" width="60" height="30" as="geometry"/></mxCell><mxCell id="42" value="Disabled" style="text;html=1;strokeColor=none;fillColor=none;align=center;verticalAlign=middle;whiteSpace=wrap;rounded=0;sketch=1;opacity=50;" vertex="1" parent="44"><mxGeometry x="50" y="120" width="60" height="30" as="geometry"/></mxCell><mxCell id="43" value="In the&lt;br&gt;Grounded&lt;br&gt;Extension" style="text;html=1;strokeColor=none;fillColor=none;align=center;verticalAlign=middle;whiteSpace=wrap;rounded=0;sketch=1;opacity=50;" vertex="1" parent="44"><mxGeometry x="110" y="130" width="60" height="30" as="geometry"/></mxCell></root></mxGraphModel></diagram></mxfile>